<svg width="24" height="24" viewBox="0 0 24 24" fill="none" xmlns="http://www.w3.org/2000/svg">
  <path d="M7 4V2C7 1.45 7.45 1 8 1H16C16.55 1 17 1.45 17 2V4H20C20.55 4 21 4.45 21 5S20.55 6 20 6H19V19C19 20.1 18.1 21 17 21H7C5.9 21 5 20.1 5 19V6H4C3.45 6 3 5.55 3 5S3.45 4 4 4H7ZM9 3V4H15V3H9ZM7 6V19H17V6H7Z" fill="#6b705c"/>
  <path d="M3.5 7L4.5 19H19.5L20.5 7H3.5ZM18 9V11H16V9H18ZM18 13V15H16V13H18ZM9 9H11V11H9V9ZM13 9H15V11H13V9ZM9 13H11V15H9V13ZM13 13H15V15H13V13Z" fill="none"/>
  <rect x="5" y="8" width="14" height="10" rx="1" fill="none" stroke="#6b705c" stroke-width="1.5"/>
  <circle cx="12" cy="13" r="1" fill="#6b705c"/>
</svg>
